<svg width="190" height="46" viewBox="0 0 190 46" fill="none" xmlns="http://www.w3.org/2000/svg">
<path d="M82.1984 23.2891V34.1424H85.7991V21.5255H89V17.7268H85.7991V12.4358H82.1984V23.2891ZM74.8644 14.3355V16.2348H78.3317V12.4361H74.8644V14.3355ZM74.8644 25.9348V34.1426H78.4655V17.7269H74.8644V25.9348ZM47.6558 24.5238C47.6558 29.4757 47.6956 31.4835 47.8159 31.8905C48.0293 32.6367 49.1358 33.7627 49.8692 33.9798C50.2825 34.1019 53.03 34.1426 60.7789 34.1426H71.1283V17.7269H67.5272V30.4796H61.3925V17.7269H57.7914V30.4796H52.3782C51.9489 30.4796 51.6033 30.1268 51.6033 30.1268C51.6033 30.1268 51.2565 29.8714 51.2565 29.2163V17.7269H47.6558V24.5238ZM40.9628 24.8488C40.3899 24.8555 39.7648 25.0128 39.1352 25.3873L23.1855 35.463L23.3445 35.5606C23.7932 35.8265 24.3836 36.0126 25.0371 35.9993C25.6099 35.9949 26.2373 35.8398 26.8668 35.4631L30.0014 33.4821L42.8099 25.3809L42.6465 25.279C42.1954 25.0242 41.6163 24.8444 40.9628 24.8488ZM30.4416 19.6324L35.7588 22.9917L30.4416 26.3554C30.8271 25.3095 31.0536 24.1749 31.0536 22.9917C31.0536 21.8062 30.8271 20.6805 30.4416 19.6324ZM12.854 19.6324C12.4706 20.6805 12.242 21.8106 12.242 22.9917C12.242 24.1749 12.462 25.3051 12.854 26.351L7.53902 22.9917L12.854 19.6324ZM21.6497 15.4244C25.7667 15.4244 29.0775 18.8014 29.0775 22.9917C29.0775 27.1842 25.76 30.5545 21.6497 30.5545C17.5284 30.5545 14.213 27.1776 14.213 22.9917C14.213 18.8059 17.5349 15.4244 21.6497 15.4244ZM21.6497 11.746L20.7283 12.3244L17.0863 14.6266C16.8264 14.7738 16.5741 14.9343 16.3304 15.1075L3.86424 22.9914L16.3304 30.8713C16.5815 31.0444 16.8394 31.207 17.1036 31.3588L21.6541 34.2284L26.1283 31.3986C26.1392 31.3898 26.1523 31.3787 26.1632 31.3743C26.442 31.2192 26.7122 31.0441 26.9735 30.858L39.438 22.9917L26.9696 15.1118C26.7213 14.939 26.4664 14.7706 26.1985 14.6221L21.6497 11.746ZM17.7773 10.0005C17.2044 10.0049 16.5792 10.1622 15.9475 10.5367L12.813 12.5221L0 20.621C0.82993 21.1838 2.23274 21.4741 3.67917 20.621L19.6289 10.5406L19.4699 10.4431C19.0212 10.1728 18.4373 9.98937 17.7773 10.0005Z" fill="white"/>
<path d="M102.185 6.5921C102.159 6.66799 102.044 7.07256 101.929 7.48981C101.827 7.90706 101.686 8.41284 101.623 8.62778C101.559 8.83005 101.418 9.34847 101.317 9.76568C101.201 10.1829 100.959 11.0048 100.78 11.5991C100.448 12.7497 100.422 12.8508 99.8348 14.9497C99.6174 15.7083 99.3879 16.5428 99.3238 16.783C99.2091 17.1876 98.2253 20.652 97.9191 21.7141C97.8555 21.9544 97.6251 22.7762 97.4082 23.5475C96.8336 25.5958 96.8206 25.6464 96.1949 27.8464C95.8758 28.959 95.5692 30.0717 95.4925 30.3119C95.4289 30.5522 95.25 31.1843 95.1093 31.7027C94.688 33.22 94.6369 33.4349 94.0242 35.5591C93.7046 36.6717 93.3855 37.8097 93.3085 38.0879C93.2322 38.3661 93.1171 38.7327 93.0404 38.8971C92.9253 39.2132 93.0825 39.2611 93.1847 39.3383C93.2456 39.3842 93.641 39.4534 93.7428 39.4913C93.8835 39.5419 93.9857 39.3775 94.1385 38.8212C94.2537 38.4166 94.407 37.8856 94.4711 37.6453C94.6625 36.9373 95.7351 33.1947 95.8632 32.7775C95.9269 32.5625 96.1568 31.7154 96.3863 30.8809C96.808 29.351 97.6385 26.3924 98.3149 24.0532C98.379 23.8383 98.5448 23.244 98.6855 22.7256C98.8259 22.2073 99.0047 21.575 99.0688 21.3348C99.2857 20.5509 100.333 16.8589 100.448 16.4669C100.601 15.9865 100.78 15.329 101.112 14.1278C101.252 13.6094 101.431 12.9772 101.495 12.737C101.686 12.0669 102.759 8.31167 102.913 7.80592C102.977 7.56569 103.053 7.19905 103.066 6.99671C103.052 6.77509 103.04 6.60474 102.67 6.52889C102.389 6.47832 102.223 6.49096 102.185 6.5921Z" fill="#00E2ED"/>
<path d="M114.444 34.34C113.537 34.34 112.676 34.2267 111.86 34C111.067 33.7507 110.33 33.4107 109.65 32.98C108.97 32.5267 108.381 31.994 107.882 31.382L109.854 29.41C110.443 30.1353 111.123 30.6793 111.894 31.042C112.665 31.382 113.526 31.552 114.478 31.552C115.43 31.552 116.167 31.3933 116.688 31.076C117.209 30.736 117.47 30.2713 117.47 29.682C117.47 29.0927 117.255 28.6393 116.824 28.322C116.416 27.982 115.883 27.71 115.226 27.506C114.569 27.2793 113.866 27.064 113.118 26.86C112.393 26.6333 111.701 26.35 111.044 26.01C110.387 25.67 109.843 25.2053 109.412 24.616C109.004 24.0267 108.8 23.2447 108.8 22.27C108.8 21.2953 109.038 20.4567 109.514 19.754C109.99 19.0287 110.647 18.4733 111.486 18.088C112.347 17.7027 113.379 17.51 114.58 17.51C115.849 17.51 116.971 17.7367 117.946 18.19C118.943 18.6207 119.759 19.278 120.394 20.162L118.422 22.134C117.969 21.5447 117.402 21.0913 116.722 20.774C116.065 20.4567 115.317 20.298 114.478 20.298C113.594 20.298 112.914 20.4567 112.438 20.774C111.985 21.0687 111.758 21.488 111.758 22.032C111.758 22.576 111.962 22.9953 112.37 23.29C112.778 23.5847 113.311 23.834 113.968 24.038C114.648 24.242 115.351 24.4573 116.076 24.684C116.801 24.888 117.493 25.1713 118.15 25.534C118.807 25.8967 119.34 26.384 119.748 26.996C120.179 27.608 120.394 28.4127 120.394 29.41C120.394 30.9287 119.85 32.13 118.762 33.014C117.697 33.898 116.257 34.34 114.444 34.34ZM126.302 34V11.084H129.362V34H126.302ZM122.324 20.638V17.85H133.34V20.638H122.324ZM142.707 34.34C141.234 34.34 139.897 33.9773 138.695 33.252C137.494 32.504 136.542 31.4953 135.839 30.226C135.159 28.9567 134.819 27.5287 134.819 25.942C134.819 24.3553 135.159 22.9273 135.839 21.658C136.542 20.3887 137.483 19.38 138.661 18.632C139.863 17.884 141.211 17.51 142.707 17.51C143.931 17.51 145.019 17.7707 145.971 18.292C146.946 18.7907 147.728 19.4933 148.317 20.4C148.907 21.284 149.235 22.3153 149.303 23.494V28.356C149.235 29.512 148.907 30.5433 148.317 31.45C147.751 32.3567 146.98 33.0707 146.005 33.592C145.053 34.0907 143.954 34.34 142.707 34.34ZM143.217 31.45C144.736 31.45 145.96 30.94 146.889 29.92C147.819 28.8773 148.283 27.5513 148.283 25.942C148.283 24.8313 148.068 23.868 147.637 23.052C147.229 22.2133 146.64 21.5673 145.869 21.114C145.099 20.638 144.203 20.4 143.183 20.4C142.163 20.4 141.257 20.638 140.463 21.114C139.693 21.59 139.081 22.2473 138.627 23.086C138.197 23.902 137.981 24.8427 137.981 25.908C137.981 26.996 138.197 27.9593 138.627 28.798C139.081 29.614 139.704 30.26 140.497 30.736C141.291 31.212 142.197 31.45 143.217 31.45ZM148.079 34V29.648L148.657 25.704L148.079 21.794V17.85H151.173V34H148.079ZM165.964 34L158.416 25.738L165.896 17.85H169.602L161.272 26.554L161.408 24.786L169.908 34H165.964ZM155.628 34V9.724H158.688V34H155.628ZM179.112 34.34C177.503 34.34 176.052 33.9773 174.76 33.252C173.468 32.504 172.448 31.4953 171.7 30.226C170.952 28.9567 170.578 27.5173 170.578 25.908C170.578 24.3213 170.941 22.8933 171.666 21.624C172.414 20.3547 173.412 19.3573 174.658 18.632C175.928 17.884 177.344 17.51 178.908 17.51C180.404 17.51 181.719 17.85 182.852 18.53C184.008 19.21 184.904 20.1507 185.538 21.352C186.196 22.5533 186.524 23.9133 186.524 25.432C186.524 25.6587 186.513 25.908 186.49 26.18C186.468 26.4293 186.422 26.724 186.354 27.064H172.72V24.514H184.722L183.6 25.5C183.6 24.412 183.408 23.494 183.022 22.746C182.637 21.9753 182.093 21.386 181.39 20.978C180.688 20.5473 179.838 20.332 178.84 20.332C177.798 20.332 176.88 20.5587 176.086 21.012C175.293 21.4653 174.681 22.1 174.25 22.916C173.82 23.732 173.604 24.6953 173.604 25.806C173.604 26.9393 173.831 27.9367 174.284 28.798C174.738 29.6367 175.384 30.294 176.222 30.77C177.061 31.2233 178.024 31.45 179.112 31.45C180.019 31.45 180.846 31.2913 181.594 30.974C182.365 30.6567 183.022 30.1807 183.566 29.546L185.538 31.552C184.768 32.4587 183.816 33.15 182.682 33.626C181.572 34.102 180.382 34.34 179.112 34.34Z" fill="white"/>
</svg>
