<svg width="7296" height="1075" viewBox="0 0 7296 1075" fill="none" xmlns="http://www.w3.org/2000/svg">
<path d="M6918.03 451.284C6925.91 451.284 7109.68 451.284 7109.68 451.284V509.48H7038.44C7038.44 509.48 7035.43 509.48 7032.42 515.5C7029.41 521.52 7008.34 561.655 7008.34 561.655C7008.34 561.655 7006.33 568.679 7010.34 568.679C7014.36 568.679 7081.58 568.679 7081.58 568.679C7081.58 568.679 7085.6 568.679 7086.6 566.672C7087.6 564.665 7109.68 522.524 7112.69 516.504C7115.7 510.483 7109.68 509.48 7109.68 509.48V451.284C7109.68 451.284 7287.12 451.284 7292.29 451.284C7297.46 451.284 7296.3 460.315 7294.3 465.332C7292.29 470.349 7226.92 610.82 7224.06 615.837C7221.21 620.854 7216.19 627.878 7211.02 627.878C7205.85 627.878 6988.27 627.878 6986.26 627.878C6984.26 627.878 6979.24 628.881 6977.23 632.894C6975.23 636.908 6946.13 699.117 6944.12 703.13C6942.11 707.144 6944.12 710.154 6946.13 710.154C6948.13 710.154 7010.34 710.154 7014.36 710.154C7018.37 710.154 7020.38 709.15 7022.38 706.14C7024.39 703.13 7036.43 680.053 7038.44 676.039C7040.44 672.026 7042.45 670.019 7046.46 670.019C7050.48 670.019 7185.78 670.019 7189.95 670.019C7194.11 670.019 7193.96 682.06 7191.95 686.073C7189.95 690.086 7160.85 749.285 7156.84 757.312C7152.82 765.339 7144.8 768.349 7141.79 768.349C7138.77 768.349 6773.55 768.349 6766.52 768.349C6759.5 768.349 6758.55 762.329 6760.5 757.312C6762.46 752.295 6893.8 468.342 6897.97 461.318C6902.13 454.295 6910.16 451.284 6918.03 451.284Z" fill="#00E2ED"/>
<path d="M3986.93 451.284C3994.8 451.284 4178.57 451.284 4178.57 451.284V509.48H4107.33C4107.33 509.48 4104.32 509.48 4101.31 515.5C4098.3 521.52 4077.23 561.655 4077.23 561.655C4077.23 561.655 4075.22 568.679 4079.24 568.679C4083.25 568.679 4150.48 568.679 4150.48 568.679C4150.48 568.679 4154.49 568.679 4155.49 566.672C4156.5 564.665 4178.57 522.524 4181.58 516.504C4184.59 510.483 4178.57 509.48 4178.57 509.48V451.284C4178.57 451.284 4356.01 451.284 4361.18 451.284C4366.36 451.284 4365.2 460.315 4363.19 465.332C4361.18 470.349 4295.81 610.82 4292.96 615.837C4290.1 620.854 4285.08 627.878 4279.91 627.878C4274.74 627.878 4057.16 627.878 4055.16 627.878C4053.15 627.878 4048.13 628.881 4046.13 632.894C4044.12 636.908 4015.02 699.117 4013.02 703.13C4011.01 707.144 4013.02 710.154 4015.02 710.154C4017.03 710.154 4079.24 710.154 4083.25 710.154C4087.26 710.154 4089.27 709.15 4091.28 706.14C4093.28 703.13 4105.33 680.053 4107.33 676.039C4109.34 672.026 4111.35 670.019 4115.36 670.019C4119.37 670.019 4254.67 670.019 4258.84 670.019C4263.01 670.019 4262.85 682.06 4260.85 686.073C4258.84 690.086 4229.74 749.285 4225.73 757.312C4221.72 765.339 4213.69 768.349 4210.68 768.349C4207.67 768.349 3842.44 768.349 3835.42 768.349C3828.4 768.349 3827.44 762.329 3829.4 757.312C3831.36 752.295 3962.69 468.342 3966.86 461.318C3971.03 454.295 3979.06 451.284 3986.93 451.284Z" fill="#00E2ED"/>
<path d="M6289.46 768.349C6281.59 768.349 6097.82 768.349 6097.82 768.349V710.153H6169.06C6169.06 710.153 6172.07 710.153 6175.08 704.133C6178.09 698.113 6199.16 657.978 6199.16 657.978C6199.16 657.978 6201.17 650.955 6197.15 650.955C6193.14 650.955 6125.91 650.955 6125.91 650.955C6125.91 650.955 6121.9 650.955 6120.9 652.961C6119.89 654.968 6097.82 697.11 6094.81 703.13C6091.8 709.15 6097.82 710.153 6097.82 710.153V768.349C6097.82 768.349 5920.38 768.349 5915.21 768.349C5910.03 768.349 5911.19 759.319 5913.2 754.302C5915.21 749.285 5980.58 608.813 5983.43 603.796C5986.29 598.779 5991.31 591.756 5996.48 591.756C6001.65 591.756 6219.23 591.756 6221.23 591.756C6223.24 591.756 6228.26 590.752 6230.26 586.739C6232.27 582.725 6261.37 520.517 6263.37 516.503C6265.38 512.49 6263.37 509.479 6261.37 509.479C6259.36 509.479 6197.15 509.479 6193.14 509.479C6189.13 509.479 6187.12 510.483 6185.11 513.493C6183.11 516.503 6171.06 539.581 6169.06 543.594C6167.05 547.608 6165.04 549.614 6161.03 549.614C6157.02 549.614 6021.72 549.614 6017.55 549.614C6013.38 549.614 6013.54 537.574 6015.54 533.56C6017.55 529.547 6046.65 470.348 6050.66 462.321C6054.67 454.294 6062.7 451.284 6065.71 451.284C6068.72 451.284 6433.95 451.284 6440.97 451.284C6447.99 451.284 6448.95 457.304 6446.99 462.321C6445.03 467.338 6313.7 751.292 6309.53 758.315C6305.36 765.339 6297.34 768.349 6289.46 768.349Z" fill="#00E2ED"/>
<path d="M3339.55 768.349C3331.68 768.349 3147.91 768.349 3147.91 768.349V710.153H3219.15C3219.15 710.153 3222.16 710.153 3225.17 704.133C3228.18 698.113 3249.25 657.978 3249.25 657.978C3249.25 657.978 3251.26 650.955 3247.24 650.955C3243.23 650.955 3176.01 650.955 3176.01 650.955C3176.01 650.955 3171.99 650.955 3170.99 652.961C3169.99 654.968 3147.91 697.11 3144.9 703.13C3141.89 709.15 3147.91 710.153 3147.91 710.153V768.349C3147.91 768.349 2970.47 768.349 2965.3 768.349C2960.13 768.349 2961.28 759.319 2963.29 754.302C2965.3 749.285 3030.67 608.813 3033.53 603.796C3036.38 598.779 3041.4 591.756 3046.57 591.756C3051.74 591.756 3269.32 591.756 3271.33 591.756C3273.33 591.756 3278.35 590.752 3280.36 586.739C3282.36 582.725 3311.46 520.517 3313.47 516.503C3315.47 512.49 3313.47 509.479 3311.46 509.479C3309.45 509.479 3247.24 509.479 3243.23 509.479C3239.22 509.479 3237.21 510.483 3235.2 513.493C3233.2 516.503 3221.16 539.581 3219.15 543.594C3217.14 547.608 3215.14 549.614 3211.12 549.614C3207.11 549.614 3071.81 549.614 3067.64 549.614C3063.47 549.614 3063.63 537.574 3065.63 533.56C3067.64 529.547 3096.74 470.348 3100.75 462.321C3104.77 454.294 3112.79 451.284 3115.8 451.284C3118.81 451.284 3484.04 451.284 3491.06 451.284C3498.09 451.284 3499.04 457.304 3497.08 462.321C3495.13 467.338 3363.79 751.292 3359.62 758.315C3355.45 765.339 3347.43 768.349 3339.55 768.349Z" fill="#00E2ED"/>
<path d="M5883.41 300.778C5888.42 290.745 5892.44 287.734 5899.46 284.724C5906.49 281.714 6057.99 220.509 6057.99 220.509C6057.99 220.509 6068.03 217.499 6072.04 218.502C6076.05 219.505 6077.06 226.53 6076.05 230.542C6075.05 234.555 6072.04 240.576 6072.04 240.576C6072.04 240.576 6007.84 376.03 6004.85 382.051C6001.87 388.072 6008.91 391.082 6011.88 391.082C6014.85 391.082 6065.02 391.082 6072.08 391.082C6079.14 391.082 6077.14 401.116 6076.09 403.122C6075.05 405.128 6063.01 431.215 6058.03 439.243C6053.06 447.271 6043.02 449.278 6038.97 449.277C6034.92 449.276 5986.79 449.277 5979.77 449.277C5972.75 449.277 5967.73 463.324 5967.73 463.324C5967.73 463.324 5834.28 751.291 5831.27 756.308C5828.26 761.325 5821.03 768.349 5815.12 768.349C5809.2 768.349 5691.8 768.349 5680.77 768.349C5669.73 768.349 5670.73 758.315 5670.73 758.315C5670.73 758.315 5671.78 754.301 5674.75 748.281C5677.72 742.261 5808.15 463.324 5811.2 457.304C5814.25 451.284 5809.24 449.277 5807.19 449.277C5805.14 449.277 5794.11 449.277 5787.12 449.277C5780.14 449.277 5778.13 441.25 5781.1 435.23C5784.07 429.21 5796.11 404.125 5799.16 399.109C5802.21 394.092 5809.24 391.082 5814.21 391.082C5819.19 391.082 5832.24 391.082 5837.29 391.082C5842.35 391.082 5848.33 382.051 5848.33 382.051C5848.33 382.051 5878.39 310.812 5883.41 300.778Z" fill="#00E2ED"/>
<path d="M6561.67 300.98C6567.68 290.148 6570.7 287.936 6577.73 284.926C6584.75 281.916 6736.26 220.71 6736.26 220.71C6736.26 220.71 6746.29 217.7 6750.31 218.704C6754.32 219.707 6755.32 226.732 6754.32 230.744C6753.32 234.757 6750.31 240.778 6750.31 240.778C6750.31 240.778 6654.97 436.229 6651.99 442.25C6649.01 448.272 6656.05 451.281 6659.02 451.281C6661.99 451.281 6780.38 451.281 6787.45 451.281C6794.51 451.281 6795.47 460.311 6791.46 463.321C6787.45 466.331 6697.14 542.587 6690.12 548.608C6683.1 554.628 6680.09 554.628 6684.1 567.672C6688.11 580.715 6730.26 730.217 6733.27 741.255C6736.28 752.292 6732.26 768.346 6718.22 768.346C6704.17 768.346 6598.81 768.346 6590.79 768.346C6582.76 768.346 6581.76 766.748 6578.75 756.51C6575.74 746.271 6558.68 686.069 6557.68 680.049C6556.67 674.029 6545.64 675.032 6543.63 680.049C6541.62 685.066 6512.55 751.493 6509.54 756.51C6506.53 761.527 6499.3 768.55 6493.38 768.55C6487.46 768.55 6370.07 768.55 6359.03 768.55C6348 768.55 6349 758.517 6349 758.517C6349 758.517 6350.04 754.503 6353.01 748.483C6355.98 742.463 6555.67 311.812 6561.67 300.98Z" fill="#00E2ED"/>
<path d="M4617.15 300.98C4622.16 290.946 4626.18 287.936 4633.2 284.926C4640.22 281.916 4791.73 220.71 4791.73 220.71C4791.73 220.71 4801.77 217.7 4805.78 218.704C4809.79 219.707 4810.8 226.732 4809.79 230.744C4808.79 234.757 4805.78 240.778 4805.78 240.778C4805.78 240.778 4741.57 376.232 4738.59 382.253C4735.61 388.274 4742.65 391.283 4745.62 391.283C4748.59 391.283 4798.76 391.283 4805.82 391.283C4812.88 391.283 4810.87 401.318 4809.83 403.324C4808.79 405.329 4796.75 431.417 4791.77 439.445C4786.79 447.473 4776.76 449.48 4772.71 449.479C4768.65 449.478 4720.53 449.479 4713.51 449.479C4706.48 449.479 4701.47 463.526 4701.47 463.526C4701.47 463.526 4568.02 751.493 4565.01 756.51C4562 761.527 4554.77 768.55 4548.85 768.55C4542.94 768.55 4425.54 768.55 4414.5 768.55C4403.47 768.55 4404.47 758.517 4404.47 758.517C4404.47 758.517 4405.51 754.503 4408.48 748.483C4411.45 742.463 4541.89 463.526 4544.94 457.506C4547.99 451.485 4542.97 449.479 4540.93 449.479C4538.88 449.479 4527.85 449.479 4520.86 449.479C4513.88 449.479 4511.87 441.452 4514.84 435.432C4517.81 429.411 4529.85 404.327 4532.9 399.31C4535.95 394.293 4542.97 391.283 4547.95 391.283C4552.93 391.283 4565.97 391.283 4571.03 391.283C4576.09 391.283 4582.07 382.253 4582.07 382.253C4582.07 382.253 4612.13 311.014 4617.15 300.98Z" fill="#00E2ED"/>
<path d="M5480.05 579.716C5480.05 579.716 5687.74 579.716 5694.77 579.716C5701.79 579.716 5703.92 588.746 5702.86 592.76C5701.79 596.773 5625.54 755.306 5623.59 758.316C5621.65 761.326 5611.61 768.349 5608.54 768.349C5605.47 768.349 5243.31 768.349 5233.28 768.349C5223.25 768.349 5225.31 756.309 5227.26 752.295C5229.21 748.282 5259.31 686.073 5263.38 680.053C5267.46 674.033 5272.47 670.019 5277.43 670.019C5282.38 670.019 5413.82 670.019 5417.9 670.019C5421.98 670.019 5422.98 676.039 5421.91 680.053C5420.85 684.066 5409.81 700.12 5409.87 704.134C5409.94 708.147 5411.94 710.154 5415.89 710.154C5419.84 710.154 5475.03 710.154 5482.12 710.154C5489.2 710.154 5493.15 701.124 5493.15 701.124C5493.15 701.124 5515.23 655.972 5517.23 650.955C5519.24 645.938 5520.31 637.911 5513.22 637.911C5506.13 637.911 5298.44 637.911 5292.48 637.911C5286.52 637.911 5284.51 628.881 5287.46 624.867C5290.41 620.854 5362.65 466.335 5363.72 463.325C5364.78 460.315 5373.81 451.284 5378.77 451.284C5383.72 451.284 5751.96 451.284 5758.04 451.284C5764.13 451.284 5764.13 461.318 5763.06 463.325C5761.99 465.332 5727.88 536.571 5725.93 539.581C5723.99 542.591 5716.97 547.608 5713.89 547.608C5710.82 547.608 5578.38 547.608 5574.43 547.608C5570.47 547.608 5569.47 541.588 5569.41 537.574C5569.35 533.561 5579.38 516.504 5579.44 514.497C5579.51 512.49 5579.51 509.48 5576.43 509.48C5573.36 509.48 5510.15 509.48 5506.2 509.48C5502.25 509.48 5499.24 512.49 5498.17 514.497C5497.1 516.504 5471.02 566.672 5471.08 573.696C5471.14 580.719 5480.05 579.716 5480.05 579.716Z" fill="#00E2ED"/>
<path d="M3531.52 465.332C3532.52 463.325 3540.55 451.284 3549.58 451.284C3558.61 451.284 3917.81 451.284 3923.83 451.284C3929.85 451.284 3934.87 457.305 3931.86 465.332C3928.85 473.359 3892.73 540.584 3892.73 540.584C3892.73 540.584 3887.71 547.608 3881.69 547.608C3875.67 547.608 3750.25 547.608 3743.23 547.608C3736.2 547.608 3732.19 542.591 3738.21 534.564C3744.23 526.537 3747.24 519.514 3747.24 514.497C3747.24 509.48 3738.21 509.48 3738.21 509.48C3738.21 509.48 3680.02 509.48 3676 509.48C3671.99 509.48 3665.97 513.493 3664.96 516.504C3663.96 519.514 3582.68 693.097 3579.68 702.127C3576.67 711.157 3587.71 710.154 3587.71 710.154C3587.71 710.154 3651.92 710.154 3654.93 710.154C3657.94 710.154 3660.95 705.137 3660.95 705.137C3660.95 705.137 3668.98 682.06 3672.99 678.046C3677 674.033 3682.03 670.019 3686.04 670.019C3690.04 670.019 3817.47 670.019 3823.5 670.019C3829.52 670.019 3829.52 678.046 3828.51 682.06C3827.51 686.073 3795.4 752.295 3792.39 757.312C3789.39 762.329 3785.37 768.349 3781.36 768.349C3777.34 768.349 3404.09 768.349 3401.08 768.349C3398.06 768.349 3390.04 764.336 3396.06 751.292C3402.08 738.248 3530.51 467.338 3531.52 465.332Z" fill="#00E2ED"/>
<path d="M4787.81 463.325C4791.82 457.305 4799.85 451.284 4807.88 451.284C4815.9 451.284 5175.11 451.284 5182.13 451.284C5189.16 451.284 5193.17 460.315 5190.16 465.332C5187.15 470.349 5050.69 757.312 5050.69 757.312L4915.24 705.137C4915.24 705.137 4996.43 531.554 5001.45 519.514C5006.47 507.473 5003.54 509.48 4998.52 509.48C4993.5 509.48 4939.32 509.48 4934.3 509.48C4929.29 509.48 4924.27 511.487 4923.26 514.497C4922.26 517.507 4836.97 695.103 4835.97 702.127C4834.97 709.15 4837.98 710.154 4846 710.154C4854.03 710.154 4904.2 710.154 4907.21 710.154C4910.22 710.154 4913.23 708.147 4915.24 705.137L5050.69 757.312C5049.69 759.319 5045.68 768.349 5039.65 768.349C5033.63 768.349 4663.39 768.349 4657.37 768.349C4651.35 768.349 4649.34 758.316 4653.36 750.289C4657.37 742.262 4783.8 469.345 4787.81 463.325Z" fill="#00E2ED"/>
<path d="M2565.29 683.063C2567.27 682.06 2696.7 608.814 2699.71 606.807C2702.73 604.8 2701.72 599.783 2699.71 598.78C2697.71 597.776 2630.48 560.652 2626.47 557.642C2622.46 554.632 2621.45 548.611 2623.46 545.601C2625.47 542.591 2663.59 464.328 2666.63 458.308C2669.67 452.288 2678.7 451.284 2682.69 451.284C2686.67 451.284 3050.89 451.284 3055.94 451.284C3060.99 451.284 3064 454.295 3062.96 458.308C3061.93 462.322 3030.83 531.554 3027.85 536.571C3024.86 541.588 3018.84 547.608 3014.8 547.608C3010.76 547.608 2878.34 547.608 2871.32 547.608C2864.3 547.608 2869.28 536.571 2871.32 532.557C2873.36 528.544 2879.32 519.514 2878.34 514.497C2877.37 509.48 2871.32 509.48 2871.32 509.48C2871.32 509.48 2808.08 509.48 2804.09 509.48C2800.11 509.48 2797.1 515.5 2796.07 518.51C2795.04 521.52 2690.68 746.275 2685.7 755.306C2680.71 764.336 2676.69 768.349 2668.64 768.349C2660.58 768.349 2536.19 768.349 2534.19 768.349C2532.19 768.349 2522.15 764.336 2526.16 755.306C2530.17 746.275 2553.22 697.11 2556.26 692.093C2559.3 687.076 2563.31 684.066 2565.29 683.063Z" fill="#00E2ED"/>
<path d="M2645.23 31.3633C2644.14 33.6824 2638.5 46.1165 2632.7 58.9503C2627.02 71.8237 2619.99 87.3764 2616.96 93.9734C2614.09 100.171 2606.91 116.123 2601.22 128.996C2595.43 141.83 2583.88 167.058 2575.51 185.29C2559.41 220.634 2558.02 223.752 2528.8 288.282C2518.2 311.591 2506.62 337.258 2503.3 344.655C2497.65 357.089 2449.31 463.559 2434.45 496.184C2431.13 503.58 2419.7 528.848 2408.95 552.557C2380.42 615.527 2379.73 617.086 2349.02 684.694C2333.47 718.878 2318.02 753.102 2314.59 760.459C2311.28 767.855 2302.46 787.286 2295.29 803.238C2274.19 849.896 2271.28 856.532 2241.55 921.782C2226 955.966 2210.15 990.949 2206.29 999.505C2202.43 1008.06 2197.22 1019.3 2194.67 1024.25C2190.04 1033.89 2190.82 1035.89 2190.8 1038.65C2190.79 1040.29 2193.34 1043.7 2193.76 1045.22C2194.37 1047.25 2197.14 1042.37 2204.86 1025.26C2210.51 1012.82 2217.94 996.513 2221.25 989.116C2231.05 967.327 2283.37 852.341 2289.27 839.546C2292.29 832.949 2304.02 806.882 2315.61 781.214C2336.85 734.157 2378.05 643.2 2410.8 571.353C2413.82 564.756 2422.09 546.485 2429.27 530.533C2436.45 514.581 2445.26 495.15 2448.58 487.753C2459.47 463.645 2510.98 350.178 2516.48 338.144C2523.33 323.43 2532.44 303.2 2549.12 266.258C2556.3 250.305 2565.12 230.875 2568.43 223.478C2577.79 202.888 2630.25 87.5019 2637.39 71.989C2640.71 64.5925 2645.59 53.2387 2648.04 46.8832C2650.48 39.8354 2652.35 34.4137 2650.08 30.8682C2648.28 28.3991 2646.73 28.2845 2645.23 31.3633Z" fill="url(#paint0_radial_0_3)"/>
<path d="M2064.01 547.901V771.359H2101.72H2139.43V641.474V511.589H2172.95H2206.47V472.484V433.379H2172.95H2139.43V378.911V324.443H2101.72H2064.01V547.901Z" fill="white"/>
<path d="M1910.41 363.556V402.662H1946.72H1983.03V363.556V324.451H1946.72H1910.41V363.556Z" fill="white"/>
<path d="M1910.41 602.37V771.36H1948.12H1985.82V602.37V433.38H1948.12H1910.41V602.37Z" fill="white"/>
<path d="M1340.58 573.32C1340.58 675.272 1341.41 716.612 1343.93 724.992C1348.4 740.354 1371.58 763.538 1386.94 768.007C1395.6 770.521 1453.14 771.359 1615.43 771.359H1832.18V602.369V433.379H1794.47H1756.77V564.66V695.942H1692.52H1628.28V564.66V433.379H1590.57H1552.86V564.66V695.942H1491.69C1491.69 695.942 1448.48 695.942 1439.49 695.942C1430.5 695.942 1423.25 688.68 1423.25 688.68C1423.25 688.68 1415.99 683.42 1415.99 669.931C1415.99 656.443 1415.99 557.398 1415.99 557.398V433.379H1378.28H1340.58V573.32Z" fill="white"/>
<path d="M1152.11 599.3C1135.99 599.484 1118.41 603.834 1100.7 614.189L652.088 892.78L656.561 895.476C669.182 902.828 685.786 907.975 704.167 907.607C720.28 907.485 737.925 903.196 755.632 892.78L843.797 838.006L1204.06 614.013L1199.46 611.195C1186.78 604.149 1170.49 599.178 1152.11 599.3Z" fill="white"/>
<path d="M856.217 455.092L1005.77 547.975L856.217 640.98C867.061 612.061 873.432 580.691 873.432 547.975C873.432 515.197 867.06 484.072 856.217 455.092ZM361.537 455.092C350.754 484.072 344.321 515.318 344.321 547.975C344.321 580.691 350.509 611.939 361.537 640.858L212.043 547.975L361.537 455.092ZM608.932 338.742C724.729 338.742 817.852 432.115 817.852 547.976C817.852 663.896 724.54 757.085 608.932 757.085C493.012 757.085 399.761 663.712 399.761 547.976C399.761 432.24 493.194 338.742 608.932 338.742ZM608.932 237.037L583.016 253.027L480.576 316.685C473.224 320.79 466.239 325.14 459.315 329.98L108.684 547.966L459.315 765.842C466.361 770.621 473.591 775.094 481.065 779.322L609.056 858.664L734.9 780.424C735.206 780.179 735.575 779.873 735.881 779.75C743.723 775.461 751.32 770.621 758.672 765.475L1109.26 547.975L758.562 330.099C751.578 325.32 744.409 320.663 736.873 316.558L608.932 237.037Z" fill="white"/>
<path d="M500.017 188.755C483.905 188.878 466.32 193.228 448.553 203.582L360.388 258.479L0 482.409C23.3435 497.972 62.8 505.998 103.483 482.409L552.097 203.692L547.624 200.996C535.003 193.522 518.582 188.449 500.017 188.755Z" fill="white"/>
<defs>
<radialGradient id="paint0_radial_0_3" cx="0" cy="0" r="1" gradientUnits="userSpaceOnUse" gradientTransform="translate(2420.57 537.185) rotate(-69.9346) scale(555.301 485.385)">
<stop stop-color="white"/>
<stop offset="0.74" stop-color="white"/>
<stop offset="0.865" stop-color="white" stop-opacity="0.9"/>
<stop offset="1" stop-color="white" stop-opacity="0"/>
</radialGradient>
</defs>
</svg>
