<svg xmlns="http://www.w3.org/2000/svg" version="1.1" xmlns:xlink="http://www.w3.org/1999/xlink" xmlns:svgjs="http://svgjs.dev/svgjs" width="254" height="251"><svg width="254" height="251" viewBox="0 0 254 251" fill="none" xmlns="http://www.w3.org/2000/svg">
<ellipse cx="127" cy="125.5" rx="127" ry="125.5" fill="#292929"></ellipse>
<path d="M102.185 34.5079C102.046 34.9265 101.416 37.1577 100.789 39.4589C100.231 41.7601 99.4622 44.5496 99.1143 45.735C98.7664 46.8506 97.9976 49.7097 97.4414 52.0107C96.8121 54.3119 95.4871 58.8446 94.5099 62.1221C92.6931 68.4679 92.5557 69.0257 89.3452 80.6012C88.1576 84.7853 86.9034 89.3874 86.5534 90.7123C85.9263 92.9438 80.5511 112.051 78.8781 117.908C78.5302 119.233 77.2718 123.766 76.0863 128.019C72.9467 139.316 72.8758 139.595 69.4569 151.729C67.7131 157.865 66.038 164.001 65.6192 165.326C65.2713 166.651 64.2942 170.138 63.5254 172.997C61.2233 181.365 60.9441 182.55 57.5961 194.265C55.8502 200.402 54.1064 206.678 53.6855 208.212C53.2688 209.746 52.6396 211.768 52.2208 212.675C51.5916 214.418 52.4506 214.683 53.009 215.108C53.3418 215.362 55.5023 215.743 56.0585 215.952C56.8273 216.231 57.3856 215.325 58.221 212.256C58.8502 210.025 59.6878 207.096 60.0378 205.771C61.0837 201.866 66.9443 181.225 67.6444 178.924C67.9923 177.739 69.2486 173.067 70.5028 168.464C72.8071 160.027 77.3448 143.709 81.0407 130.809C81.3907 129.623 82.297 126.346 83.0658 123.487C83.8325 120.628 84.8096 117.141 85.1596 115.816C86.3451 111.493 92.0682 91.1309 92.6931 88.9691C93.5328 86.3193 94.51 82.6932 96.3246 76.0685C97.0913 73.2096 98.0684 69.7229 98.4163 68.398C99.4622 64.7022 105.325 43.9916 106.162 41.2024C106.512 39.8775 106.929 37.8554 107 36.7394C106.925 35.5172 106.86 34.5777 104.835 34.1593C103.302 33.8804 102.394 33.9502 102.185 34.5079Z" fill="#00E2ED"></path>
<path d="M155 184.6C146.253 184.6 138.787 183 132.6 179.8C126.413 176.6 120.92 171.96 116.12 165.88L126.36 155.64C129.88 160.547 133.933 164.28 138.52 166.84C143.107 169.293 148.76 170.52 155.48 170.52C162.093 170.52 167.373 169.08 171.32 166.2C175.373 163.32 177.4 159.373 177.4 154.36C177.4 150.2 176.44 146.84 174.52 144.28C172.6 141.72 169.987 139.64 166.68 138.04C163.48 136.333 159.96 134.84 156.12 133.56C152.28 132.173 148.44 130.733 144.6 129.24C140.76 127.64 137.24 125.72 134.04 123.48C130.84 121.133 128.227 118.093 126.2 114.36C124.28 110.627 123.32 105.933 123.32 100.28C123.32 93.9867 124.813 88.6533 127.8 84.28C130.893 79.8 135.053 76.3867 140.28 74.04C145.613 71.5867 151.587 70.36 158.2 70.36C165.453 70.36 171.96 71.8 177.72 74.68C183.48 77.4533 188.173 81.1333 191.8 85.72L181.56 95.96C178.253 92.12 174.68 89.24 170.84 87.32C167.107 85.4 162.787 84.44 157.88 84.44C151.907 84.44 147.16 85.7733 143.64 88.44C140.12 91 138.36 94.6267 138.36 99.32C138.36 103.053 139.32 106.093 141.24 108.44C143.267 110.68 145.88 112.6 149.08 114.2C152.28 115.8 155.8 117.293 159.64 118.68C163.587 119.96 167.48 121.4 171.32 123C175.16 124.6 178.68 126.627 181.88 129.08C185.08 131.533 187.64 134.733 189.56 138.68C191.587 142.52 192.6 147.373 192.6 153.24C192.6 163.053 189.187 170.733 182.36 176.28C175.64 181.827 166.52 184.6 155 184.6Z" fill="white"></path>
</svg><style>@media (prefers-color-scheme: light) { :root { filter: none; } }
@media (prefers-color-scheme: dark) { :root { filter: none; } }
</style></svg>